<mxfile host="app.diagrams.net" modified="2023-08-28T18:32:38.817Z" agent="Mozilla/5.0 (X11; Linux x86_64) AppleWebKit/537.36 (KHTML, like Gecko) Chrome/100.0.4896.88 Safari/537.36" etag="a10Z1Yik4O8aa0K8zFxC" version="21.6.9" type="google">
  <diagram id="R2lEEEUBdFMjLlhIrx00" name="Page-1">
    <mxGraphModel grid="1" page="1" gridSize="10" guides="1" tooltips="1" connect="1" arrows="1" fold="1" pageScale="1" pageWidth="850" pageHeight="1100" math="0" shadow="0" extFonts="Permanent Marker^https://fonts.googleapis.com/css?family=Permanent+Marker">
      <root>
        <mxCell id="0" />
        <mxCell id="1" parent="0" />
        <mxCell id="qiDqm1S0po34fTQ9EKG--2" value="Usuario" style="rounded=1;whiteSpace=wrap;html=1;" vertex="1" parent="1">
          <mxGeometry y="380" width="120" height="60" as="geometry" />
        </mxCell>
        <mxCell id="qiDqm1S0po34fTQ9EKG--3" value="Denuncia o Incidente" style="rounded=1;whiteSpace=wrap;html=1;" vertex="1" parent="1">
          <mxGeometry x="340" y="380" width="120" height="60" as="geometry" />
        </mxCell>
        <mxCell id="qiDqm1S0po34fTQ9EKG--4" value="Articulo Informativo" style="rounded=1;whiteSpace=wrap;html=1;" vertex="1" parent="1">
          <mxGeometry x="340" y="230" width="120" height="60" as="geometry" />
        </mxCell>
        <mxCell id="qiDqm1S0po34fTQ9EKG--5" value="Mensaje" style="rounded=1;whiteSpace=wrap;html=1;" vertex="1" parent="1">
          <mxGeometry x="340" y="80" width="120" height="60" as="geometry" />
        </mxCell>
        <mxCell id="qiDqm1S0po34fTQ9EKG--6" value="Evento en Linea" style="rounded=1;whiteSpace=wrap;html=1;" vertex="1" parent="1">
          <mxGeometry x="340" y="530" width="120" height="60" as="geometry" />
        </mxCell>
        <mxCell id="qiDqm1S0po34fTQ9EKG--7" value="Evaluacion de Riesgos" style="rounded=1;whiteSpace=wrap;html=1;" vertex="1" parent="1">
          <mxGeometry x="340" y="680" width="120" height="60" as="geometry" />
        </mxCell>
        <mxCell id="qiDqm1S0po34fTQ9EKG--8" value="Registra" style="rhombus;whiteSpace=wrap;html=1;" vertex="1" parent="1">
          <mxGeometry x="190" y="370" width="80" height="80" as="geometry" />
        </mxCell>
        <mxCell id="qiDqm1S0po34fTQ9EKG--9" value="Crea" style="rhombus;whiteSpace=wrap;html=1;" vertex="1" parent="1">
          <mxGeometry x="190" y="220" width="80" height="80" as="geometry" />
        </mxCell>
        <mxCell id="qiDqm1S0po34fTQ9EKG--10" value="Envia/Recibe" style="rhombus;whiteSpace=wrap;html=1;" vertex="1" parent="1">
          <mxGeometry x="190" y="70" width="80" height="80" as="geometry" />
        </mxCell>
        <mxCell id="qiDqm1S0po34fTQ9EKG--11" value="Programa" style="rhombus;whiteSpace=wrap;html=1;" vertex="1" parent="1">
          <mxGeometry x="190" y="520" width="80" height="80" as="geometry" />
        </mxCell>
        <mxCell id="qiDqm1S0po34fTQ9EKG--12" value="Completa" style="rhombus;whiteSpace=wrap;html=1;" vertex="1" parent="1">
          <mxGeometry x="190" y="670" width="80" height="80" as="geometry" />
        </mxCell>
        <mxCell id="qiDqm1S0po34fTQ9EKG--13" value="Esta asociado a" style="rhombus;whiteSpace=wrap;html=1;" vertex="1" parent="1">
          <mxGeometry x="530" y="370" width="110" height="80" as="geometry" />
        </mxCell>
        <mxCell id="qiDqm1S0po34fTQ9EKG--14" value="Ubicacion" style="rounded=1;whiteSpace=wrap;html=1;" vertex="1" parent="1">
          <mxGeometry x="710" y="380" width="120" height="60" as="geometry" />
        </mxCell>
        <mxCell id="qiDqm1S0po34fTQ9EKG--15" value="Centro Local" style="rounded=1;whiteSpace=wrap;html=1;" vertex="1" parent="1">
          <mxGeometry x="1050" y="380" width="120" height="60" as="geometry" />
        </mxCell>
        <mxCell id="qiDqm1S0po34fTQ9EKG--16" value="Tiene" style="rhombus;whiteSpace=wrap;html=1;" vertex="1" parent="1">
          <mxGeometry x="900" y="370" width="80" height="80" as="geometry" />
        </mxCell>
        <mxCell id="qiDqm1S0po34fTQ9EKG--17" value="Ley" style="rounded=1;whiteSpace=wrap;html=1;" vertex="1" parent="1">
          <mxGeometry x="600" y="610" width="120" height="60" as="geometry" />
        </mxCell>
        <mxCell id="qiDqm1S0po34fTQ9EKG--18" value="Envia" style="rhombus;whiteSpace=wrap;html=1;" vertex="1" parent="1">
          <mxGeometry x="790" y="600" width="80" height="80" as="geometry" />
        </mxCell>
        <mxCell id="qiDqm1S0po34fTQ9EKG--19" value="?" style="text;html=1;align=center;verticalAlign=middle;resizable=0;points=[];autosize=1;strokeColor=none;fillColor=none;" vertex="1" parent="1">
          <mxGeometry x="720" y="625" width="30" height="30" as="geometry" />
        </mxCell>
        <mxCell id="qiDqm1S0po34fTQ9EKG--20" value="?" style="text;html=1;align=center;verticalAlign=middle;resizable=0;points=[];autosize=1;strokeColor=none;fillColor=none;" vertex="1" parent="1">
          <mxGeometry x="870" y="625" width="30" height="30" as="geometry" />
        </mxCell>
        <mxCell id="qiDqm1S0po34fTQ9EKG--21" value="" style="endArrow=none;html=1;rounded=0;exitX=1;exitY=0.5;exitDx=0;exitDy=0;entryX=0;entryY=0.5;entryDx=0;entryDy=0;" edge="1" parent="1" source="qiDqm1S0po34fTQ9EKG--2" target="qiDqm1S0po34fTQ9EKG--8">
          <mxGeometry width="50" height="50" relative="1" as="geometry">
            <mxPoint x="600" y="470" as="sourcePoint" />
            <mxPoint x="650" y="420" as="targetPoint" />
          </mxGeometry>
        </mxCell>
        <mxCell id="qiDqm1S0po34fTQ9EKG--22" value="" style="endArrow=none;html=1;rounded=0;entryX=0;entryY=0.5;entryDx=0;entryDy=0;" edge="1" parent="1" target="qiDqm1S0po34fTQ9EKG--3">
          <mxGeometry width="50" height="50" relative="1" as="geometry">
            <mxPoint x="270" y="410" as="sourcePoint" />
            <mxPoint x="320" y="360" as="targetPoint" />
          </mxGeometry>
        </mxCell>
        <mxCell id="qiDqm1S0po34fTQ9EKG--23" value="" style="endArrow=none;html=1;rounded=0;entryX=0;entryY=0.5;entryDx=0;entryDy=0;" edge="1" parent="1">
          <mxGeometry width="50" height="50" relative="1" as="geometry">
            <mxPoint x="270" y="259.71000000000004" as="sourcePoint" />
            <mxPoint x="340" y="259.71000000000004" as="targetPoint" />
          </mxGeometry>
        </mxCell>
        <mxCell id="qiDqm1S0po34fTQ9EKG--24" value="" style="endArrow=none;html=1;rounded=0;entryX=0;entryY=0.5;entryDx=0;entryDy=0;" edge="1" parent="1">
          <mxGeometry width="50" height="50" relative="1" as="geometry">
            <mxPoint x="270" y="109.71000000000004" as="sourcePoint" />
            <mxPoint x="340" y="109.71000000000004" as="targetPoint" />
          </mxGeometry>
        </mxCell>
        <mxCell id="qiDqm1S0po34fTQ9EKG--25" value="" style="endArrow=none;html=1;rounded=0;entryX=0;entryY=0.5;entryDx=0;entryDy=0;" edge="1" parent="1">
          <mxGeometry width="50" height="50" relative="1" as="geometry">
            <mxPoint x="270" y="559.71" as="sourcePoint" />
            <mxPoint x="340" y="559.71" as="targetPoint" />
          </mxGeometry>
        </mxCell>
        <mxCell id="qiDqm1S0po34fTQ9EKG--26" value="" style="endArrow=none;html=1;rounded=0;entryX=0;entryY=0.5;entryDx=0;entryDy=0;" edge="1" parent="1">
          <mxGeometry width="50" height="50" relative="1" as="geometry">
            <mxPoint x="270" y="709.71" as="sourcePoint" />
            <mxPoint x="340" y="709.71" as="targetPoint" />
          </mxGeometry>
        </mxCell>
        <mxCell id="qiDqm1S0po34fTQ9EKG--27" value="" style="endArrow=none;html=1;rounded=0;entryX=0;entryY=0.5;entryDx=0;entryDy=0;" edge="1" parent="1">
          <mxGeometry width="50" height="50" relative="1" as="geometry">
            <mxPoint x="460" y="409.71" as="sourcePoint" />
            <mxPoint x="530" y="409.71" as="targetPoint" />
          </mxGeometry>
        </mxCell>
        <mxCell id="qiDqm1S0po34fTQ9EKG--28" value="" style="endArrow=none;html=1;rounded=0;entryX=0;entryY=0.5;entryDx=0;entryDy=0;" edge="1" parent="1">
          <mxGeometry width="50" height="50" relative="1" as="geometry">
            <mxPoint x="640" y="409.71" as="sourcePoint" />
            <mxPoint x="710" y="409.71" as="targetPoint" />
          </mxGeometry>
        </mxCell>
        <mxCell id="qiDqm1S0po34fTQ9EKG--29" value="" style="endArrow=none;html=1;rounded=0;entryX=0;entryY=0.5;entryDx=0;entryDy=0;" edge="1" parent="1">
          <mxGeometry width="50" height="50" relative="1" as="geometry">
            <mxPoint x="830" y="409.71" as="sourcePoint" />
            <mxPoint x="900" y="409.71" as="targetPoint" />
          </mxGeometry>
        </mxCell>
        <mxCell id="qiDqm1S0po34fTQ9EKG--30" value="" style="endArrow=none;html=1;rounded=0;entryX=0;entryY=0.5;entryDx=0;entryDy=0;" edge="1" parent="1">
          <mxGeometry width="50" height="50" relative="1" as="geometry">
            <mxPoint x="980" y="409.71" as="sourcePoint" />
            <mxPoint x="1050" y="409.71" as="targetPoint" />
          </mxGeometry>
        </mxCell>
        <mxCell id="qiDqm1S0po34fTQ9EKG--31" value="" style="endArrow=none;html=1;rounded=0;entryX=0;entryY=0.5;entryDx=0;entryDy=0;" edge="1" parent="1">
          <mxGeometry width="50" height="50" relative="1" as="geometry">
            <mxPoint x="60" y="260" as="sourcePoint" />
            <mxPoint x="190" y="259.71000000000004" as="targetPoint" />
          </mxGeometry>
        </mxCell>
        <mxCell id="qiDqm1S0po34fTQ9EKG--33" value="" style="endArrow=none;html=1;rounded=0;" edge="1" parent="1">
          <mxGeometry width="50" height="50" relative="1" as="geometry">
            <mxPoint x="60" y="380" as="sourcePoint" />
            <mxPoint x="60" y="260" as="targetPoint" />
          </mxGeometry>
        </mxCell>
        <mxCell id="qiDqm1S0po34fTQ9EKG--34" value="" style="endArrow=none;html=1;rounded=0;entryX=0;entryY=0.5;entryDx=0;entryDy=0;" edge="1" parent="1">
          <mxGeometry width="50" height="50" relative="1" as="geometry">
            <mxPoint x="60" y="110" as="sourcePoint" />
            <mxPoint x="190" y="109.71000000000004" as="targetPoint" />
          </mxGeometry>
        </mxCell>
        <mxCell id="qiDqm1S0po34fTQ9EKG--35" value="" style="endArrow=none;html=1;rounded=0;entryX=0;entryY=0.5;entryDx=0;entryDy=0;" edge="1" parent="1">
          <mxGeometry width="50" height="50" relative="1" as="geometry">
            <mxPoint x="60" y="560" as="sourcePoint" />
            <mxPoint x="190" y="559.71" as="targetPoint" />
          </mxGeometry>
        </mxCell>
        <mxCell id="qiDqm1S0po34fTQ9EKG--36" value="" style="endArrow=none;html=1;rounded=0;entryX=0;entryY=0.5;entryDx=0;entryDy=0;" edge="1" parent="1">
          <mxGeometry width="50" height="50" relative="1" as="geometry">
            <mxPoint x="60" y="710" as="sourcePoint" />
            <mxPoint x="190" y="709.71" as="targetPoint" />
          </mxGeometry>
        </mxCell>
        <mxCell id="qiDqm1S0po34fTQ9EKG--37" value="" style="endArrow=none;html=1;rounded=0;" edge="1" parent="1">
          <mxGeometry width="50" height="50" relative="1" as="geometry">
            <mxPoint x="60" y="260" as="sourcePoint" />
            <mxPoint x="59.71" y="110" as="targetPoint" />
          </mxGeometry>
        </mxCell>
        <mxCell id="qiDqm1S0po34fTQ9EKG--38" value="" style="endArrow=none;html=1;rounded=0;" edge="1" parent="1">
          <mxGeometry width="50" height="50" relative="1" as="geometry">
            <mxPoint x="60" y="710" as="sourcePoint" />
            <mxPoint x="59.71000000000001" y="560" as="targetPoint" />
          </mxGeometry>
        </mxCell>
        <mxCell id="qiDqm1S0po34fTQ9EKG--39" value="" style="endArrow=none;html=1;rounded=0;" edge="1" parent="1">
          <mxGeometry width="50" height="50" relative="1" as="geometry">
            <mxPoint x="59.71" y="560" as="sourcePoint" />
            <mxPoint x="59.71" y="440" as="targetPoint" />
          </mxGeometry>
        </mxCell>
        <mxCell id="qiDqm1S0po34fTQ9EKG--40" value="&lt;font style=&quot;font-size: 6px;&quot;&gt;id&lt;/font&gt;" style="ellipse;whiteSpace=wrap;html=1;aspect=fixed;" vertex="1" parent="1">
          <mxGeometry y="470" width="30" height="30" as="geometry" />
        </mxCell>
        <mxCell id="qiDqm1S0po34fTQ9EKG--41" value="&lt;font style=&quot;font-size: 6px;&quot;&gt;nombre&lt;/font&gt;" style="ellipse;whiteSpace=wrap;html=1;aspect=fixed;" vertex="1" parent="1">
          <mxGeometry x="90" y="470" width="30" height="30" as="geometry" />
        </mxCell>
        <mxCell id="qiDqm1S0po34fTQ9EKG--42" value="&lt;font style=&quot;font-size: 6px;&quot;&gt;correo&lt;/font&gt;" style="ellipse;whiteSpace=wrap;html=1;aspect=fixed;" vertex="1" parent="1">
          <mxGeometry x="-60" y="410" width="30" height="30" as="geometry" />
        </mxCell>
        <mxCell id="qiDqm1S0po34fTQ9EKG--43" value="&lt;font style=&quot;font-size: 6px;&quot;&gt;rol&lt;/font&gt;" style="ellipse;whiteSpace=wrap;html=1;aspect=fixed;" vertex="1" parent="1">
          <mxGeometry x="-60" y="380" width="30" height="30" as="geometry" />
        </mxCell>
        <mxCell id="qiDqm1S0po34fTQ9EKG--44" value="" style="endArrow=none;html=1;rounded=0;entryX=0;entryY=0.25;entryDx=0;entryDy=0;exitX=1;exitY=0.5;exitDx=0;exitDy=0;" edge="1" parent="1" source="qiDqm1S0po34fTQ9EKG--43" target="qiDqm1S0po34fTQ9EKG--2">
          <mxGeometry width="50" height="50" relative="1" as="geometry">
            <mxPoint x="-30" y="390" as="sourcePoint" />
            <mxPoint x="20" y="340" as="targetPoint" />
          </mxGeometry>
        </mxCell>
        <mxCell id="qiDqm1S0po34fTQ9EKG--45" value="" style="endArrow=none;html=1;rounded=0;entryX=0;entryY=0.25;entryDx=0;entryDy=0;exitX=1;exitY=0.5;exitDx=0;exitDy=0;" edge="1" parent="1">
          <mxGeometry width="50" height="50" relative="1" as="geometry">
            <mxPoint x="-30" y="424.8" as="sourcePoint" />
            <mxPoint y="424.8" as="targetPoint" />
          </mxGeometry>
        </mxCell>
        <mxCell id="qiDqm1S0po34fTQ9EKG--46" value="" style="endArrow=none;html=1;rounded=0;entryX=0.5;entryY=0;entryDx=0;entryDy=0;exitX=0.123;exitY=0.997;exitDx=0;exitDy=0;exitPerimeter=0;" edge="1" parent="1" source="qiDqm1S0po34fTQ9EKG--2" target="qiDqm1S0po34fTQ9EKG--40">
          <mxGeometry width="50" height="50" relative="1" as="geometry">
            <mxPoint x="10" y="460" as="sourcePoint" />
            <mxPoint x="40" y="460" as="targetPoint" />
          </mxGeometry>
        </mxCell>
        <mxCell id="qiDqm1S0po34fTQ9EKG--47" value="" style="endArrow=none;html=1;rounded=0;entryX=0.5;entryY=0;entryDx=0;entryDy=0;exitX=0.123;exitY=0.997;exitDx=0;exitDy=0;exitPerimeter=0;" edge="1" parent="1">
          <mxGeometry width="50" height="50" relative="1" as="geometry">
            <mxPoint x="104.8" y="440" as="sourcePoint" />
            <mxPoint x="104.8" y="470" as="targetPoint" />
          </mxGeometry>
        </mxCell>
        <mxCell id="qiDqm1S0po34fTQ9EKG--48" value="&lt;font style=&quot;font-size: 6px;&quot;&gt;id&lt;/font&gt;" style="ellipse;whiteSpace=wrap;html=1;aspect=fixed;" vertex="1" parent="1">
          <mxGeometry x="340" y="470" width="30" height="30" as="geometry" />
        </mxCell>
        <mxCell id="qiDqm1S0po34fTQ9EKG--49" value="" style="endArrow=none;html=1;rounded=0;entryX=0.5;entryY=0;entryDx=0;entryDy=0;exitX=0.123;exitY=0.997;exitDx=0;exitDy=0;exitPerimeter=0;" edge="1" parent="1" target="qiDqm1S0po34fTQ9EKG--48">
          <mxGeometry width="50" height="50" relative="1" as="geometry">
            <mxPoint x="355" y="440" as="sourcePoint" />
            <mxPoint x="380" y="460" as="targetPoint" />
          </mxGeometry>
        </mxCell>
        <mxCell id="qiDqm1S0po34fTQ9EKG--50" value="&lt;font style=&quot;font-size: 6px;&quot;&gt;desc.&lt;/font&gt;" style="ellipse;whiteSpace=wrap;html=1;aspect=fixed;" vertex="1" parent="1">
          <mxGeometry x="370" y="470" width="30" height="30" as="geometry" />
        </mxCell>
        <mxCell id="qiDqm1S0po34fTQ9EKG--51" value="" style="endArrow=none;html=1;rounded=0;entryX=0.5;entryY=0;entryDx=0;entryDy=0;exitX=0.123;exitY=0.997;exitDx=0;exitDy=0;exitPerimeter=0;" edge="1" parent="1" target="qiDqm1S0po34fTQ9EKG--50">
          <mxGeometry width="50" height="50" relative="1" as="geometry">
            <mxPoint x="385" y="440" as="sourcePoint" />
            <mxPoint x="410" y="460" as="targetPoint" />
          </mxGeometry>
        </mxCell>
        <mxCell id="qiDqm1S0po34fTQ9EKG--52" value="&lt;font style=&quot;font-size: 6px;&quot;&gt;fecha&lt;/font&gt;" style="ellipse;whiteSpace=wrap;html=1;aspect=fixed;" vertex="1" parent="1">
          <mxGeometry x="400" y="470" width="30" height="30" as="geometry" />
        </mxCell>
        <mxCell id="qiDqm1S0po34fTQ9EKG--53" value="" style="endArrow=none;html=1;rounded=0;entryX=0.5;entryY=0;entryDx=0;entryDy=0;exitX=0.123;exitY=0.997;exitDx=0;exitDy=0;exitPerimeter=0;" edge="1" parent="1" target="qiDqm1S0po34fTQ9EKG--52">
          <mxGeometry width="50" height="50" relative="1" as="geometry">
            <mxPoint x="415" y="440" as="sourcePoint" />
            <mxPoint x="440" y="460" as="targetPoint" />
          </mxGeometry>
        </mxCell>
        <mxCell id="qiDqm1S0po34fTQ9EKG--54" value="&lt;font style=&quot;font-size: 6px;&quot;&gt;pruebas&lt;/font&gt;" style="ellipse;whiteSpace=wrap;html=1;aspect=fixed;" vertex="1" parent="1">
          <mxGeometry x="430" y="470" width="30" height="30" as="geometry" />
        </mxCell>
        <mxCell id="qiDqm1S0po34fTQ9EKG--55" value="" style="endArrow=none;html=1;rounded=0;entryX=0.5;entryY=0;entryDx=0;entryDy=0;exitX=0.123;exitY=0.997;exitDx=0;exitDy=0;exitPerimeter=0;" edge="1" parent="1" target="qiDqm1S0po34fTQ9EKG--54">
          <mxGeometry width="50" height="50" relative="1" as="geometry">
            <mxPoint x="445" y="440" as="sourcePoint" />
            <mxPoint x="470" y="460" as="targetPoint" />
          </mxGeometry>
        </mxCell>
        <mxCell id="qiDqm1S0po34fTQ9EKG--56" value="&lt;font style=&quot;font-size: 6px;&quot;&gt;id&lt;/font&gt;" style="ellipse;whiteSpace=wrap;html=1;aspect=fixed;" vertex="1" parent="1">
          <mxGeometry x="340" y="320" width="30" height="30" as="geometry" />
        </mxCell>
        <mxCell id="qiDqm1S0po34fTQ9EKG--57" value="" style="endArrow=none;html=1;rounded=0;entryX=0.5;entryY=0;entryDx=0;entryDy=0;exitX=0.123;exitY=0.997;exitDx=0;exitDy=0;exitPerimeter=0;" edge="1" parent="1" target="qiDqm1S0po34fTQ9EKG--56">
          <mxGeometry width="50" height="50" relative="1" as="geometry">
            <mxPoint x="355" y="290" as="sourcePoint" />
            <mxPoint x="380" y="310" as="targetPoint" />
          </mxGeometry>
        </mxCell>
        <mxCell id="qiDqm1S0po34fTQ9EKG--58" value="&lt;font style=&quot;font-size: 6px;&quot;&gt;titulo&lt;/font&gt;" style="ellipse;whiteSpace=wrap;html=1;aspect=fixed;" vertex="1" parent="1">
          <mxGeometry x="370" y="320" width="30" height="30" as="geometry" />
        </mxCell>
        <mxCell id="qiDqm1S0po34fTQ9EKG--59" value="" style="endArrow=none;html=1;rounded=0;entryX=0.5;entryY=0;entryDx=0;entryDy=0;exitX=0.123;exitY=0.997;exitDx=0;exitDy=0;exitPerimeter=0;" edge="1" parent="1" target="qiDqm1S0po34fTQ9EKG--58">
          <mxGeometry width="50" height="50" relative="1" as="geometry">
            <mxPoint x="385" y="290" as="sourcePoint" />
            <mxPoint x="410" y="310" as="targetPoint" />
          </mxGeometry>
        </mxCell>
        <mxCell id="qiDqm1S0po34fTQ9EKG--60" value="&lt;font style=&quot;font-size: 6px;&quot;&gt;contenido&lt;/font&gt;" style="ellipse;whiteSpace=wrap;html=1;aspect=fixed;" vertex="1" parent="1">
          <mxGeometry x="400" y="320" width="30" height="30" as="geometry" />
        </mxCell>
        <mxCell id="qiDqm1S0po34fTQ9EKG--61" value="" style="endArrow=none;html=1;rounded=0;entryX=0.5;entryY=0;entryDx=0;entryDy=0;exitX=0.123;exitY=0.997;exitDx=0;exitDy=0;exitPerimeter=0;" edge="1" parent="1" target="qiDqm1S0po34fTQ9EKG--60">
          <mxGeometry width="50" height="50" relative="1" as="geometry">
            <mxPoint x="415" y="290" as="sourcePoint" />
            <mxPoint x="440" y="310" as="targetPoint" />
          </mxGeometry>
        </mxCell>
        <mxCell id="qiDqm1S0po34fTQ9EKG--62" value="&lt;font style=&quot;font-size: 6px;&quot;&gt;fecha&lt;/font&gt;" style="ellipse;whiteSpace=wrap;html=1;aspect=fixed;" vertex="1" parent="1">
          <mxGeometry x="430" y="320" width="30" height="30" as="geometry" />
        </mxCell>
        <mxCell id="qiDqm1S0po34fTQ9EKG--63" value="" style="endArrow=none;html=1;rounded=0;entryX=0.5;entryY=0;entryDx=0;entryDy=0;exitX=0.123;exitY=0.997;exitDx=0;exitDy=0;exitPerimeter=0;" edge="1" parent="1" target="qiDqm1S0po34fTQ9EKG--62">
          <mxGeometry width="50" height="50" relative="1" as="geometry">
            <mxPoint x="445" y="290" as="sourcePoint" />
            <mxPoint x="470" y="310" as="targetPoint" />
          </mxGeometry>
        </mxCell>
        <mxCell id="qiDqm1S0po34fTQ9EKG--64" value="&lt;font style=&quot;font-size: 6px;&quot;&gt;id&lt;/font&gt;" style="ellipse;whiteSpace=wrap;html=1;aspect=fixed;" vertex="1" parent="1">
          <mxGeometry x="340" y="170" width="30" height="30" as="geometry" />
        </mxCell>
        <mxCell id="qiDqm1S0po34fTQ9EKG--65" value="" style="endArrow=none;html=1;rounded=0;entryX=0.5;entryY=0;entryDx=0;entryDy=0;exitX=0.123;exitY=0.997;exitDx=0;exitDy=0;exitPerimeter=0;" edge="1" parent="1" target="qiDqm1S0po34fTQ9EKG--64">
          <mxGeometry width="50" height="50" relative="1" as="geometry">
            <mxPoint x="355" y="140" as="sourcePoint" />
            <mxPoint x="380" y="160" as="targetPoint" />
          </mxGeometry>
        </mxCell>
        <mxCell id="qiDqm1S0po34fTQ9EKG--66" value="&lt;font style=&quot;font-size: 6px;&quot;&gt;contenido&lt;/font&gt;" style="ellipse;whiteSpace=wrap;html=1;aspect=fixed;" vertex="1" parent="1">
          <mxGeometry x="370" y="170" width="30" height="30" as="geometry" />
        </mxCell>
        <mxCell id="qiDqm1S0po34fTQ9EKG--67" value="" style="endArrow=none;html=1;rounded=0;entryX=0.5;entryY=0;entryDx=0;entryDy=0;exitX=0.123;exitY=0.997;exitDx=0;exitDy=0;exitPerimeter=0;" edge="1" parent="1" target="qiDqm1S0po34fTQ9EKG--66">
          <mxGeometry width="50" height="50" relative="1" as="geometry">
            <mxPoint x="385" y="140" as="sourcePoint" />
            <mxPoint x="410" y="160" as="targetPoint" />
          </mxGeometry>
        </mxCell>
        <mxCell id="qiDqm1S0po34fTQ9EKG--68" value="&lt;font style=&quot;font-size: 6px;&quot;&gt;fecha&lt;/font&gt;" style="ellipse;whiteSpace=wrap;html=1;aspect=fixed;" vertex="1" parent="1">
          <mxGeometry x="400" y="170" width="30" height="30" as="geometry" />
        </mxCell>
        <mxCell id="qiDqm1S0po34fTQ9EKG--69" value="" style="endArrow=none;html=1;rounded=0;entryX=0.5;entryY=0;entryDx=0;entryDy=0;exitX=0.123;exitY=0.997;exitDx=0;exitDy=0;exitPerimeter=0;" edge="1" parent="1" target="qiDqm1S0po34fTQ9EKG--68">
          <mxGeometry width="50" height="50" relative="1" as="geometry">
            <mxPoint x="415" y="140" as="sourcePoint" />
            <mxPoint x="440" y="160" as="targetPoint" />
          </mxGeometry>
        </mxCell>
        <mxCell id="qiDqm1S0po34fTQ9EKG--76" value="&lt;font style=&quot;font-size: 6px;&quot;&gt;id&lt;/font&gt;" style="ellipse;whiteSpace=wrap;html=1;aspect=fixed;" vertex="1" parent="1">
          <mxGeometry x="340" y="620" width="30" height="30" as="geometry" />
        </mxCell>
        <mxCell id="qiDqm1S0po34fTQ9EKG--77" value="" style="endArrow=none;html=1;rounded=0;entryX=0.5;entryY=0;entryDx=0;entryDy=0;exitX=0.123;exitY=0.997;exitDx=0;exitDy=0;exitPerimeter=0;" edge="1" parent="1" target="qiDqm1S0po34fTQ9EKG--76">
          <mxGeometry width="50" height="50" relative="1" as="geometry">
            <mxPoint x="355" y="590" as="sourcePoint" />
            <mxPoint x="380" y="610" as="targetPoint" />
          </mxGeometry>
        </mxCell>
        <mxCell id="qiDqm1S0po34fTQ9EKG--78" value="&lt;font style=&quot;font-size: 6px;&quot;&gt;nombre&lt;/font&gt;" style="ellipse;whiteSpace=wrap;html=1;aspect=fixed;" vertex="1" parent="1">
          <mxGeometry x="370" y="620" width="30" height="30" as="geometry" />
        </mxCell>
        <mxCell id="qiDqm1S0po34fTQ9EKG--79" value="" style="endArrow=none;html=1;rounded=0;entryX=0.5;entryY=0;entryDx=0;entryDy=0;exitX=0.123;exitY=0.997;exitDx=0;exitDy=0;exitPerimeter=0;" edge="1" parent="1" target="qiDqm1S0po34fTQ9EKG--78">
          <mxGeometry width="50" height="50" relative="1" as="geometry">
            <mxPoint x="385" y="590" as="sourcePoint" />
            <mxPoint x="410" y="610" as="targetPoint" />
          </mxGeometry>
        </mxCell>
        <mxCell id="qiDqm1S0po34fTQ9EKG--80" value="&lt;font style=&quot;font-size: 6px;&quot;&gt;fecha&lt;/font&gt;" style="ellipse;whiteSpace=wrap;html=1;aspect=fixed;" vertex="1" parent="1">
          <mxGeometry x="400" y="620" width="30" height="30" as="geometry" />
        </mxCell>
        <mxCell id="qiDqm1S0po34fTQ9EKG--81" value="" style="endArrow=none;html=1;rounded=0;entryX=0.5;entryY=0;entryDx=0;entryDy=0;exitX=0.123;exitY=0.997;exitDx=0;exitDy=0;exitPerimeter=0;" edge="1" parent="1" target="qiDqm1S0po34fTQ9EKG--80">
          <mxGeometry width="50" height="50" relative="1" as="geometry">
            <mxPoint x="415" y="590" as="sourcePoint" />
            <mxPoint x="440" y="610" as="targetPoint" />
          </mxGeometry>
        </mxCell>
        <mxCell id="qiDqm1S0po34fTQ9EKG--82" value="&lt;font style=&quot;font-size: 6px;&quot;&gt;desc.&lt;/font&gt;" style="ellipse;whiteSpace=wrap;html=1;aspect=fixed;" vertex="1" parent="1">
          <mxGeometry x="430" y="620" width="30" height="30" as="geometry" />
        </mxCell>
        <mxCell id="qiDqm1S0po34fTQ9EKG--83" value="" style="endArrow=none;html=1;rounded=0;entryX=0.5;entryY=0;entryDx=0;entryDy=0;exitX=0.123;exitY=0.997;exitDx=0;exitDy=0;exitPerimeter=0;" edge="1" parent="1" target="qiDqm1S0po34fTQ9EKG--82">
          <mxGeometry width="50" height="50" relative="1" as="geometry">
            <mxPoint x="445" y="590" as="sourcePoint" />
            <mxPoint x="470" y="610" as="targetPoint" />
          </mxGeometry>
        </mxCell>
        <mxCell id="qiDqm1S0po34fTQ9EKG--84" value="&lt;font style=&quot;font-size: 6px;&quot;&gt;id&lt;/font&gt;" style="ellipse;whiteSpace=wrap;html=1;aspect=fixed;" vertex="1" parent="1">
          <mxGeometry x="340" y="770" width="30" height="30" as="geometry" />
        </mxCell>
        <mxCell id="qiDqm1S0po34fTQ9EKG--85" value="" style="endArrow=none;html=1;rounded=0;entryX=0.5;entryY=0;entryDx=0;entryDy=0;exitX=0.123;exitY=0.997;exitDx=0;exitDy=0;exitPerimeter=0;" edge="1" parent="1" target="qiDqm1S0po34fTQ9EKG--84">
          <mxGeometry width="50" height="50" relative="1" as="geometry">
            <mxPoint x="355" y="740" as="sourcePoint" />
            <mxPoint x="380" y="760" as="targetPoint" />
          </mxGeometry>
        </mxCell>
        <mxCell id="qiDqm1S0po34fTQ9EKG--86" value="&lt;font style=&quot;font-size: 6px;&quot;&gt;preguntas&lt;/font&gt;" style="ellipse;whiteSpace=wrap;html=1;aspect=fixed;" vertex="1" parent="1">
          <mxGeometry x="370" y="770" width="30" height="30" as="geometry" />
        </mxCell>
        <mxCell id="qiDqm1S0po34fTQ9EKG--87" value="" style="endArrow=none;html=1;rounded=0;entryX=0.5;entryY=0;entryDx=0;entryDy=0;exitX=0.123;exitY=0.997;exitDx=0;exitDy=0;exitPerimeter=0;" edge="1" parent="1" target="qiDqm1S0po34fTQ9EKG--86">
          <mxGeometry width="50" height="50" relative="1" as="geometry">
            <mxPoint x="385" y="740" as="sourcePoint" />
            <mxPoint x="410" y="760" as="targetPoint" />
          </mxGeometry>
        </mxCell>
        <mxCell id="qiDqm1S0po34fTQ9EKG--88" value="&lt;font style=&quot;font-size: 6px;&quot;&gt;respuestas&lt;/font&gt;" style="ellipse;whiteSpace=wrap;html=1;aspect=fixed;" vertex="1" parent="1">
          <mxGeometry x="400" y="770" width="30" height="30" as="geometry" />
        </mxCell>
        <mxCell id="qiDqm1S0po34fTQ9EKG--89" value="" style="endArrow=none;html=1;rounded=0;entryX=0.5;entryY=0;entryDx=0;entryDy=0;exitX=0.123;exitY=0.997;exitDx=0;exitDy=0;exitPerimeter=0;" edge="1" parent="1" target="qiDqm1S0po34fTQ9EKG--88">
          <mxGeometry width="50" height="50" relative="1" as="geometry">
            <mxPoint x="415" y="740" as="sourcePoint" />
            <mxPoint x="440" y="760" as="targetPoint" />
          </mxGeometry>
        </mxCell>
        <mxCell id="qiDqm1S0po34fTQ9EKG--90" value="&lt;span style=&quot;font-size: 6px;&quot;&gt;reco.&lt;br&gt;&lt;/span&gt;" style="ellipse;whiteSpace=wrap;html=1;aspect=fixed;" vertex="1" parent="1">
          <mxGeometry x="430" y="770" width="30" height="30" as="geometry" />
        </mxCell>
        <mxCell id="qiDqm1S0po34fTQ9EKG--91" value="" style="endArrow=none;html=1;rounded=0;entryX=0.5;entryY=0;entryDx=0;entryDy=0;exitX=0.123;exitY=0.997;exitDx=0;exitDy=0;exitPerimeter=0;" edge="1" parent="1" target="qiDqm1S0po34fTQ9EKG--90">
          <mxGeometry width="50" height="50" relative="1" as="geometry">
            <mxPoint x="445" y="740" as="sourcePoint" />
            <mxPoint x="470" y="760" as="targetPoint" />
          </mxGeometry>
        </mxCell>
        <mxCell id="qiDqm1S0po34fTQ9EKG--92" value="&lt;font style=&quot;font-size: 6px;&quot;&gt;id&lt;/font&gt;" style="ellipse;whiteSpace=wrap;html=1;aspect=fixed;" vertex="1" parent="1">
          <mxGeometry x="600" y="700" width="30" height="30" as="geometry" />
        </mxCell>
        <mxCell id="qiDqm1S0po34fTQ9EKG--93" value="" style="endArrow=none;html=1;rounded=0;entryX=0.5;entryY=0;entryDx=0;entryDy=0;exitX=0.123;exitY=0.997;exitDx=0;exitDy=0;exitPerimeter=0;" edge="1" parent="1" target="qiDqm1S0po34fTQ9EKG--92">
          <mxGeometry width="50" height="50" relative="1" as="geometry">
            <mxPoint x="615" y="670" as="sourcePoint" />
            <mxPoint x="640" y="690" as="targetPoint" />
          </mxGeometry>
        </mxCell>
        <mxCell id="qiDqm1S0po34fTQ9EKG--94" value="&lt;font style=&quot;font-size: 6px;&quot;&gt;nombre&lt;/font&gt;" style="ellipse;whiteSpace=wrap;html=1;aspect=fixed;" vertex="1" parent="1">
          <mxGeometry x="630" y="700" width="30" height="30" as="geometry" />
        </mxCell>
        <mxCell id="qiDqm1S0po34fTQ9EKG--95" value="" style="endArrow=none;html=1;rounded=0;entryX=0.5;entryY=0;entryDx=0;entryDy=0;exitX=0.123;exitY=0.997;exitDx=0;exitDy=0;exitPerimeter=0;" edge="1" parent="1" target="qiDqm1S0po34fTQ9EKG--94">
          <mxGeometry width="50" height="50" relative="1" as="geometry">
            <mxPoint x="645" y="670" as="sourcePoint" />
            <mxPoint x="670" y="690" as="targetPoint" />
          </mxGeometry>
        </mxCell>
        <mxCell id="qiDqm1S0po34fTQ9EKG--96" value="&lt;font style=&quot;font-size: 6px;&quot;&gt;desc.&lt;/font&gt;" style="ellipse;whiteSpace=wrap;html=1;aspect=fixed;" vertex="1" parent="1">
          <mxGeometry x="660" y="700" width="30" height="30" as="geometry" />
        </mxCell>
        <mxCell id="qiDqm1S0po34fTQ9EKG--97" value="" style="endArrow=none;html=1;rounded=0;entryX=0.5;entryY=0;entryDx=0;entryDy=0;exitX=0.123;exitY=0.997;exitDx=0;exitDy=0;exitPerimeter=0;" edge="1" parent="1" target="qiDqm1S0po34fTQ9EKG--96">
          <mxGeometry width="50" height="50" relative="1" as="geometry">
            <mxPoint x="675" y="670" as="sourcePoint" />
            <mxPoint x="700" y="690" as="targetPoint" />
          </mxGeometry>
        </mxCell>
        <mxCell id="qiDqm1S0po34fTQ9EKG--98" value="&lt;font style=&quot;font-size: 6px;&quot;&gt;id&lt;/font&gt;" style="ellipse;whiteSpace=wrap;html=1;aspect=fixed;" vertex="1" parent="1">
          <mxGeometry x="710" y="470" width="30" height="30" as="geometry" />
        </mxCell>
        <mxCell id="qiDqm1S0po34fTQ9EKG--99" value="" style="endArrow=none;html=1;rounded=0;entryX=0.5;entryY=0;entryDx=0;entryDy=0;exitX=0.123;exitY=0.997;exitDx=0;exitDy=0;exitPerimeter=0;" edge="1" parent="1" target="qiDqm1S0po34fTQ9EKG--98">
          <mxGeometry width="50" height="50" relative="1" as="geometry">
            <mxPoint x="725" y="440" as="sourcePoint" />
            <mxPoint x="750" y="460" as="targetPoint" />
          </mxGeometry>
        </mxCell>
        <mxCell id="qiDqm1S0po34fTQ9EKG--100" value="&lt;font style=&quot;font-size: 6px;&quot;&gt;coord.&lt;/font&gt;" style="ellipse;whiteSpace=wrap;html=1;aspect=fixed;" vertex="1" parent="1">
          <mxGeometry x="740" y="470" width="30" height="30" as="geometry" />
        </mxCell>
        <mxCell id="qiDqm1S0po34fTQ9EKG--101" value="" style="endArrow=none;html=1;rounded=0;entryX=0.5;entryY=0;entryDx=0;entryDy=0;exitX=0.123;exitY=0.997;exitDx=0;exitDy=0;exitPerimeter=0;" edge="1" parent="1" target="qiDqm1S0po34fTQ9EKG--100">
          <mxGeometry width="50" height="50" relative="1" as="geometry">
            <mxPoint x="755" y="440" as="sourcePoint" />
            <mxPoint x="780" y="460" as="targetPoint" />
          </mxGeometry>
        </mxCell>
        <mxCell id="qiDqm1S0po34fTQ9EKG--102" value="&lt;font style=&quot;font-size: 6px;&quot;&gt;id&lt;/font&gt;" style="ellipse;whiteSpace=wrap;html=1;aspect=fixed;" vertex="1" parent="1">
          <mxGeometry x="1050" y="470" width="30" height="30" as="geometry" />
        </mxCell>
        <mxCell id="qiDqm1S0po34fTQ9EKG--103" value="" style="endArrow=none;html=1;rounded=0;entryX=0.5;entryY=0;entryDx=0;entryDy=0;exitX=0.123;exitY=0.997;exitDx=0;exitDy=0;exitPerimeter=0;" edge="1" parent="1" target="qiDqm1S0po34fTQ9EKG--102">
          <mxGeometry width="50" height="50" relative="1" as="geometry">
            <mxPoint x="1065" y="440" as="sourcePoint" />
            <mxPoint x="1090" y="460" as="targetPoint" />
          </mxGeometry>
        </mxCell>
        <mxCell id="qiDqm1S0po34fTQ9EKG--104" value="&lt;font style=&quot;font-size: 6px;&quot;&gt;nombre&lt;/font&gt;" style="ellipse;whiteSpace=wrap;html=1;aspect=fixed;" vertex="1" parent="1">
          <mxGeometry x="1080" y="470" width="30" height="30" as="geometry" />
        </mxCell>
        <mxCell id="qiDqm1S0po34fTQ9EKG--105" value="" style="endArrow=none;html=1;rounded=0;entryX=0.5;entryY=0;entryDx=0;entryDy=0;exitX=0.123;exitY=0.997;exitDx=0;exitDy=0;exitPerimeter=0;" edge="1" parent="1" target="qiDqm1S0po34fTQ9EKG--104">
          <mxGeometry width="50" height="50" relative="1" as="geometry">
            <mxPoint x="1095" y="440" as="sourcePoint" />
            <mxPoint x="1120" y="460" as="targetPoint" />
          </mxGeometry>
        </mxCell>
        <mxCell id="qiDqm1S0po34fTQ9EKG--106" value="&lt;font style=&quot;font-size: 6px;&quot;&gt;direccion&lt;/font&gt;" style="ellipse;whiteSpace=wrap;html=1;aspect=fixed;" vertex="1" parent="1">
          <mxGeometry x="1110" y="470" width="30" height="30" as="geometry" />
        </mxCell>
        <mxCell id="qiDqm1S0po34fTQ9EKG--107" value="" style="endArrow=none;html=1;rounded=0;entryX=0.5;entryY=0;entryDx=0;entryDy=0;exitX=0.123;exitY=0.997;exitDx=0;exitDy=0;exitPerimeter=0;" edge="1" parent="1" target="qiDqm1S0po34fTQ9EKG--106">
          <mxGeometry width="50" height="50" relative="1" as="geometry">
            <mxPoint x="1125" y="440" as="sourcePoint" />
            <mxPoint x="1150" y="460" as="targetPoint" />
          </mxGeometry>
        </mxCell>
        <mxCell id="qiDqm1S0po34fTQ9EKG--108" value="&lt;font style=&quot;font-size: 6px;&quot;&gt;tipo&lt;/font&gt;" style="ellipse;whiteSpace=wrap;html=1;aspect=fixed;" vertex="1" parent="1">
          <mxGeometry x="1140" y="470" width="30" height="30" as="geometry" />
        </mxCell>
        <mxCell id="qiDqm1S0po34fTQ9EKG--109" value="" style="endArrow=none;html=1;rounded=0;entryX=0.5;entryY=0;entryDx=0;entryDy=0;exitX=0.123;exitY=0.997;exitDx=0;exitDy=0;exitPerimeter=0;" edge="1" parent="1" target="qiDqm1S0po34fTQ9EKG--108">
          <mxGeometry width="50" height="50" relative="1" as="geometry">
            <mxPoint x="1155" y="440" as="sourcePoint" />
            <mxPoint x="1180" y="460" as="targetPoint" />
          </mxGeometry>
        </mxCell>
      </root>
    </mxGraphModel>
  </diagram>
</mxfile>
